#!OML:ASF F:\twosubjects\two\Thursday\Session 1\justin.ASF
:FULLY-SPECIFIED
:DEGREES
522
root 21.5635 18.6524 4.94418 45.2528 -85.5923 -28.111
lowerback 12.8817 0.483441 -1.05129
upperback 6.80223 0.231212 2.72027
thorax -0.102248 -0.0960328 3.39832
lowerneck -24.1279 -2.2199 -11.9571
upperneck 26.6686 0.558877 2.33591
head 12.9543 -0.760034 2.98259
rclavicle -3.18055e-015 3.97569e-016
rhumerus 24.2945 26.6026 -61.302
rradius 62.1846
rwrist 32.2235
rhand -50.2862 55.7659
rfingers 7.12502
rthumb -22.8638 27.1012
lclavicle -3.18055e-015 3.97569e-016
lhumerus 38.4872 -31.8209 63.3809
lradius 47.8727
lwrist -43.6026
lhand -39.6948 67.0482
lfingers 7.12502
lthumb -12.6735 263.356
rfemur -29.8084 -3.84582 20.9263
rtibia 22.7143
rfoot -8.69891 -9.93355
rtoes -10.015
lfemur -20.356 7.42807 -17.5934
ltibia 11.9481
lfoot -6.63062 -2.20291
ltoes -10.1888
523
root 21.5671 18.6552 4.9541 45.3372 -85.5768 -28.0758
lowerback 12.7327 0.428198 -1.02012
upperback 6.79438 0.164146 2.71559
thorax -0.0260151 -0.128288 3.38344
lowerneck -24.2118 -2.24851 -12.0242
upperneck 26.6387 0.567316 2.30756
head 12.9594 -0.765713 2.98364
rclavicle -1.59028e-015 -2.5842e-015
rhumerus 24.4385 26.62 -61.3489
rradius 62.1391
rwrist 32.1074
rhand -50.4775 55.8253
rfingers 7.12502
rthumb -23.0474 27.1834
lclavicle -1.59028e-015 -2.5842e-015
lhumerus 38.1181 -31.5332 63.9831
lradius 47.9829
lwrist -43.6684
lhand -40.2492 67.7401
lfingers 7.12502
lthumb -13.208 262.698
rfemur -29.9575 -3.85832 20.9052
rtibia 22.7409
rfoot -8.7365 -9.96116
rtoes -10.2113
lfemur -20.461 7.33992 -17.6207
ltibia 11.8302
lfoot -6.49533 -2.21529
ltoes -13.1937
524
root 21.5731 18.656 4.96012 44.8504 -85.6115 -27.5407
lowerback 12.722 0.37668 -0.990818
upperback 6.77374 0.101431 2.6188
thorax -0.0380954 -0.155518 3.27318
lowerneck -24.1237 -2.25234 -11.8512
upperneck 26.3574 0.569639 2.01824
head 12.8306 -0.773418 2.83594
rclavicle 1.05356e-014 -1.19271e-014
rhumerus 24.5207 26.4714 -61.6794
rradius 62.0129
rwrist 32.3416
rhand -50.7411 55.5303
rfingers 7.12502
rthumb -23.3003 26.9203
lclavicle 1.05356e-014 -1.19271e-014
lhumerus 37.8301 -31.3174 64.3673
lradius 48.0802
lwrist -43.7497
lhand -40.687 68.1443
lfingers 7.12502
lthumb -13.6299 262.322
rfemur -30.0332 -3.78306 20.802
rtibia 22.725
rfoot -8.81502 -9.983
rtoes -10.3428
lfemur -20.5049 7.1431 -17.66
ltibia 11.7324
lfoot -6.38137 -2.06491
ltoes -12.9409
525
root 21.5763 18.6597 4.95629 45.3622 -85.742 -28.1281
lowerback 12.8275 0.433667 -1.06352
upperback 6.77458 0.167137 2.49524
thorax -0.0983429 -0.121679 3.17727
lowerneck -23.9309 -2.23289 -11.4326
upperneck 26.0341 0.522845 1.62954
head 12.668 -0.789449 2.60121
rclavicle 5.96354e-015 8.94531e-015
rhumerus 24.4401 26.4887 -61.8575
rradius 61.9974
rwrist 31.9851
rhand -51.0503 54.715
rfingers 7.12502
rthumb -23.5968 26.1428
lclavicle 5.96354e-015 8.94531e-015
lhumerus 37.6301 -31.238 64.6729
lradius 48.2084
lwrist -43.7425
lhand -40.9388 68.0392
lfingers 7.12502
lthumb -13.8726 262.443
rfemur -29.934 -3.65141 20.7377
rtibia 22.6462
rfoot -8.90557 -9.92125
rtoes -9.72146
lfemur -20.3233 6.72205 -17.5151
ltibia 11.6988
lfoot -6.29667 -1.65985
ltoes -11.9586
526
root 21.5751 18.6645 4.9572 46.5366 -85.8343 -29.2769
lowerback 12.7787 0.546876 -0.979513
upperback 6.74595 0.327342 2.33853
thorax -0.112013 -0.03484 2.94514
lowerneck -23.9225 -2.3294 -11.082
upperneck 26.0865 0.283251 1.52138
head 12.7042 -0.875569 2.46105
rclavicle -1.11319e-014 -9.93923e-015
rhumerus 24.2346 26.2102 -62.1491
rradius 61.8749
rwrist 31.6726
rhand -51.2411 55.4663
rfingers 7.12502
rthumb -23.7799 26.9178
lclavicle -1.11319e-014 -9.93923e-015
lhumerus 37.5391 -31.4229 64.9624
lradius 48.468
lwrist -43.4288
lhand -40.9657 68.2276
lfingers 7.12502
lthumb -13.8986 262.257
rfemur -29.9366 -3.85749 20.8196
rtibia 22.522
rfoot -8.91546 -9.54591
rtoes -8.84288
lfemur -20.2764 6.26948 -17.3456
ltibia 11.792
lfoot -6.284 -1.1647
ltoes -11.7802
527
root 21.5706 18.6655 4.94837 51.3932 -85.8144 -34.1537
lowerback 12.7563 0.66238 -0.831738
upperback 6.70456 0.49738 2.33662
thorax -0.152436 0.0549221 2.83781
lowerneck -23.8969 -2.37757 -10.8423
upperneck 26.1567 0.158786 1.38628
head 12.7363 -0.928005 2.34828
rclavicle 3.97569e-015 -3.57812e-015
rhumerus 24.1246 25.865 -62.4094
rradius 61.6371
rwrist 31.6094
rhand -51.1881 57.43
rfingers 7.12502
rthumb -23.7291 28.8749
lclavicle 3.97569e-015 -3.57812e-015
lhumerus 37.3419 -31.3923 65.4366
lradius 48.5269
lwrist -43.3914
lhand -40.8854 68.3833
lfingers 7.12502
lthumb -13.8211 262.096
rfemur -29.8464 -3.69587 21.169
rtibia 22.3593
rfoot -8.86081 -9.49088
rtoes -8.78967
lfemur -20.3571 6.46347 -17.0143
ltibia 12.0559
lfoot -6.37899 -0.999045
ltoes -11.1056
528
root 21.5733 18.6554 4.94552 55.3113 -85.7778 -38.0868
lowerback 12.7909 0.677962 -0.749052
upperback 6.62596 0.531761 2.39584
thorax -0.255085 0.0756631 2.84838
lowerneck -23.6875 -2.31464 -10.764
upperneck 25.9887 0.206356 1.31887
head 12.6234 -0.901391 2.31512
rclavicle -1.07344e-014 -1.33186e-014
rhumerus 24.1553 25.8875 -62.5514
rradius 61.4928
rwrist 31.4394
rhand -51.2651 58.7209
rfingers 7.12502
rthumb -23.8029 30.1755
lclavicle -1.07344e-014 -1.33186e-014
lhumerus 36.9562 -30.986 66.1844
lradius 48.3806
lwrist -43.6746
lhand -40.6998 67.7376
lfingers 7.12502
lthumb -13.6424 262.73
rfemur -29.7515 -3.79349 21.5801
rtibia 22.1536
rfoot -8.67235 -9.28372
rtoes -10.4937
lfemur -20.5946 6.80388 -16.8346
ltibia 12.4055
lfoot -6.44701 -0.907576
ltoes -10.8072
529
root 21.5792 18.6423 4.95674 54.1178 -85.9335 -36.8311
lowerback 12.7338 0.533325 -0.894026
upperback 6.53115 0.334181 2.3564
thorax -0.313398 -0.0208343 2.91438
lowerneck -23.4806 -2.24395 -10.9421
upperneck 25.7898 0.285525 1.51077
head 12.4954 -0.84888 2.42943
rclavicle 2.78299e-015 1.37161e-014
rhumerus 24.4042 25.9714 -62.8283
rradius 61.2249
rwrist 31.9046
rhand -51.6257 59.9335
rfingers 7.12502
rthumb -24.1487 31.4335
lclavicle 2.78299e-015 1.37161e-014
lhumerus 36.4376 -30.3948 66.8455
lradius 48.3062
lwrist -43.7295
lhand -40.6963 67.2077
lfingers 7.12502
lthumb -13.6389 263.259
rfemur -29.7337 -4.33826 21.5875
rtibia 21.9484
rfoot -8.47479 -8.77584
rtoes -12.418
lfemur -20.8814 6.72321 -17.0772
ltibia 12.7543
lfoot -6.59054 -0.727512
ltoes -11.7419
530
root 21.5805 18.646 4.96171 53.5418 -86.1131 -36.2184
lowerback 12.6391 0.466218 -1.06292
upperback 6.48794 0.232207 2.30426
thorax -0.302333 -0.0722306 2.96822
lowerneck -23.5559 -2.23038 -11.0701
upperneck 25.8605 0.309043 1.6968
head 12.5352 -0.828745 2.52773
rclavicle 1.2921e-015 -8.15017e-015
rhumerus 24.6915 26.0082 -62.8769
rradius 60.8527
rwrist 31.674
rhand -51.6752 59.9772
rfingers 7.12502
rthumb -24.1961 31.4835
lclavicle 1.2921e-015 -8.15017e-015
lhumerus 36.1493 -30.0113 67.1211
lradius 48.3371
lwrist -43.6147
lhand -41.0035 66.8424
lfingers 7.12502
lthumb -13.935 263.645
rfemur -29.7245 -4.32561 21.3557
rtibia 21.8193
rfoot -8.48678 -8.67478
rtoes -11.3364
lfemur -20.9621 6.47078 -17.163
ltibia 13.0145
lfoot -6.79391 -0.586921
ltoes -11.6108
